<svg width="72.000000" height="31.999268" viewBox="0 0 72 31.9993" fill="none" xmlns="http://www.w3.org/2000/svg" xmlns:xlink="http://www.w3.org/1999/xlink">
	<desc>
			Created with Pixso.
	</desc>
	<defs/>
	<path id="Union" d="M35.9609 0L54.8379 12.1284L65.8848 4.98315L50.1465 4.98315L50.1465 3.23462L72 3.23462L63.4453 8.74194L72 8.74194L35.877 31.9993L0 8.74194L8.49609 8.74194L0 3.23462L22.1797 3.23462L22.1797 4.98315L5.87109 4.98315L17.0254 12.199L35.9609 0ZM35.9609 2.09839L53.1035 13.2502L50.5195 14.9221L35.9609 5.59546L21.3398 14.9888L18.6934 13.2773L35.9609 2.09839ZM19.7285 16.0234L11.1934 10.4907L5.87109 10.4907L17.0664 17.7332L19.7285 16.0234ZM18.6934 18.7852L21.3535 17.0767L35.877 26.4919L50.5 17.0776L53.1035 18.7581L35.877 29.9009L18.6934 18.7852ZM54.7539 17.6902L65.8848 10.4907L60.7305 10.4907L52.1875 15.9905L54.7969 17.6614L54.7539 17.6902ZM48.8418 16.0076L35.877 24.3936L22.9648 16.041L35.9609 7.69385L48.8418 16.0076Z" clip-rule="evenodd" fill="#0C243E" fill-opacity="1.000000" fill-rule="evenodd"/>
</svg>
