<svg width="180" height="80" viewBox="0 0 180 80" fill="none" xmlns="http://www.w3.org/2000/svg">
<g clip-path="url(#clip0_74_433)">
<path d="M48.8794 24.3597H44.3116C42.35 24.3597 41.3691 23.0424 41.3691 20.4079V3.98001C41.3691 1.3267 42.35 0.00945718 44.3116 0.028275H48.8794V3.41547H45.6623C45.1019 3.41547 44.8609 3.79936 44.8609 4.54454V19.9224C44.8609 20.6845 45.1299 21.0515 45.6623 21.0515H48.8794V24.3597Z" fill="#0D233F"/>
<path d="M59.0566 24.3595H55.6938V9.72679C55.6938 9.45582 55.5705 9.32597 55.3239 9.32597H53.6985C53.4519 9.32597 53.3286 9.45582 53.3286 9.72679V24.3595H49.9658V7.53076C49.9385 7.34201 49.9554 7.14946 50.015 6.96843C50.0747 6.7874 50.1754 6.6229 50.3093 6.48803C50.4432 6.35316 50.6066 6.25164 50.7863 6.19157C50.966 6.1315 51.1572 6.11452 51.3446 6.142H57.5994C57.7887 6.1123 57.9822 6.12742 58.1647 6.18617C58.3471 6.24491 58.5135 6.34567 58.6506 6.48044C58.7876 6.61522 58.8916 6.78031 58.9543 6.96263C59.017 7.14494 59.0367 7.33946 59.0118 7.53076L59.0566 24.3595Z" fill="#0D233F"/>
<path d="M68.8922 24.3596H63.2203C61.3427 24.3596 60.418 23.1289 60.418 20.6562V9.85108C60.418 7.37842 61.3521 6.14209 63.2203 6.14209H66.5831C68.4513 6.14209 69.3855 7.37842 69.3855 9.85108V16.0271C69.3855 16.8908 68.9259 17.3198 68.0067 17.3198H63.7415V20.1933C63.7415 20.8538 63.9769 21.1813 64.4477 21.1813H68.8922V24.3596ZM65.8265 14.7625C65.9946 14.7625 66.0731 14.6496 66.0731 14.4238V10.2237C66.0731 9.52364 65.8377 9.17363 65.3669 9.17363H64.4477C63.9769 9.17363 63.7415 9.52364 63.7415 10.2237V14.7399L65.8265 14.7625Z" fill="#0D233F"/>
<path d="M80.9098 28.3113H78.0626V24.3596H72.116C71.9264 24.3842 71.7338 24.3644 71.5531 24.3015C71.3724 24.2387 71.2086 24.1345 71.0745 23.9973C70.9405 23.8601 70.8397 23.6934 70.7802 23.5105C70.7208 23.3275 70.7041 23.1331 70.7317 22.9426V6.14209H74.0945V20.7466C74.0945 21.0345 74.2178 21.1813 74.4588 21.1813H76.454V6.14209H79.8169V21.1813H80.9378L80.9098 28.3113Z" fill="#0D233F"/>
<path d="M85.4484 29.4856H82.0856V7.46877C82.0604 7.28862 82.0771 7.10504 82.1344 6.9325C82.1917 6.75996 82.288 6.60318 82.4157 6.47454C82.5434 6.3459 82.699 6.2489 82.8703 6.19121C83.0416 6.13352 83.2239 6.11672 83.4027 6.14211H88.318C90.1863 6.14211 91.1204 7.37845 91.1204 9.8511V20.5321C91.1204 22.9821 90.1863 24.2072 88.318 24.2072H85.4372L85.4484 29.4856ZM87.0738 21.0176C87.5614 21.0176 87.808 20.6845 87.808 20.0296V10.314C87.808 9.65351 87.5614 9.32608 87.0738 9.32608H85.695C85.5269 9.32608 85.4484 9.4277 85.4484 9.63093V21.0289L87.0738 21.0176Z" fill="#0D233F"/>
<path d="M100.99 24.3596H95.318C93.4348 24.3596 92.5156 23.1289 92.5156 20.6562V9.85108C92.5156 7.37842 93.4516 6.14209 95.318 6.14209H98.6808C100.564 6.14209 101.483 7.37842 101.483 9.85108V16.0271C101.483 16.8908 101.024 17.3198 100.104 17.3198H95.8448V20.1933C95.8448 20.8538 96.0802 21.1813 96.551 21.1813H100.996L100.99 24.3596ZM97.9241 14.7625C98.0867 14.7625 98.1707 14.6496 98.1707 14.4238V10.2237C98.1707 9.52364 97.9354 9.17363 97.4646 9.17363H96.5454C96.0746 9.17363 95.8392 9.52364 95.8392 10.2237V14.7399L97.9241 14.7625Z" fill="#0D233F"/>
<path d="M109.88 24.3596H105.648C103.77 24.3596 102.846 23.1289 102.846 20.6562V9.85108C102.846 7.37842 103.78 6.14209 105.648 6.14209H109.88V9.32606H106.875C106.405 9.32606 106.169 9.65349 106.169 10.314V20.1933C106.169 20.8538 106.405 21.1813 106.875 21.1813H109.88V24.3596Z" fill="#0D233F"/>
<path d="M120.057 25.7822C120.057 28.2511 119.123 29.4855 117.255 29.4855H111.858V26.3072H115.994C116.487 26.3072 116.734 25.9798 116.734 25.3193V23.7442H113.847C111.979 23.7442 111.045 22.5192 111.045 20.0691V6.14209H114.408V19.7925C114.408 20.453 114.643 20.7804 115.114 20.7804H116.795V6.14209H120.158L120.057 25.7822Z" fill="#0D233F"/>
<path d="M124.748 29.4856H121.386V7.46884C121.361 7.28838 121.379 7.10472 121.437 6.93225C121.495 6.75977 121.592 6.60316 121.72 6.47467C121.848 6.34618 122.004 6.2493 122.175 6.19162C122.347 6.13394 122.529 6.11701 122.708 6.14218H127.612C129.481 6.14218 130.415 7.37851 130.415 9.85117V20.5321C130.415 22.9822 129.481 24.2072 127.612 24.2072H124.748V29.4856ZM126.368 21.0176C126.861 21.0176 127.108 20.6846 127.108 20.0297V10.3141C127.108 9.65358 126.861 9.32615 126.368 9.32615H124.989C124.827 9.32615 124.748 9.42777 124.748 9.631V21.0289L126.368 21.0176Z" fill="#0D233F"/>
<path d="M138.85 24.3596H134.619C132.736 24.3596 131.816 23.1289 131.816 20.6562V9.85108C131.816 7.37842 132.752 6.14209 134.619 6.14209H138.85V9.32606H135.846C135.375 9.32606 135.14 9.65349 135.14 10.314V20.1933C135.14 20.8538 135.375 21.1813 135.846 21.1813H138.85V24.3596Z" fill="#0D233F"/>
<path d="M62.2059 37.4512H61.9761V39.8504H60.9785V34.2502H61.9761V36.7286L62.1779 36.6326L63.3437 34.2502H64.4646L63.1924 36.6044L62.8225 36.8979L63.2036 37.2028L64.672 39.8504H63.4502L62.2059 37.4512Z" fill="#0D233F"/>
<path d="M67.2399 38.5689H65.9284L65.6034 39.8504H64.6113L66.2199 34.2051H67.0213L68.6411 39.8504H67.5818L67.2399 38.5689ZM66.119 37.756H67.0438L66.7243 36.4519L66.5954 35.5712H66.5674L66.4329 36.4576L66.119 37.756Z" fill="#0D233F"/>
<path d="M68.9707 34.2502H71.8851V35.1761H69.9683V36.3955L70.2542 36.3447C70.3624 36.3365 70.471 36.3365 70.5793 36.3447C70.8102 36.3432 71.0403 36.3736 71.263 36.435C71.4606 36.4932 71.6411 36.5993 71.7886 36.744C71.9361 36.8886 72.0462 37.0675 72.1093 37.2649C72.1938 37.5233 72.2336 37.7945 72.227 38.0665C72.2575 38.3205 72.2304 38.5781 72.1478 38.8201C72.0652 39.062 71.9293 39.282 71.7502 39.4634C71.5712 39.6449 71.3536 39.7831 71.1139 39.8677C70.8742 39.9523 70.6186 39.9812 70.3663 39.952H70.0804H69.7049C69.576 39.952 69.4415 39.952 69.3126 39.9182C69.1972 39.9038 69.0829 39.8811 68.9707 39.8504V34.2502ZM70.4391 39.0318C70.5415 39.04 70.6445 39.0261 70.7411 38.9911C70.8377 38.956 70.9259 38.9006 70.9996 38.8286C71.1548 38.6283 71.2289 38.3761 71.207 38.1229C71.2126 37.9621 71.1898 37.8016 71.1397 37.6487C71.1074 37.5455 71.0495 37.4523 70.9716 37.3778C70.8977 37.3136 70.8091 37.269 70.7138 37.2479C70.6083 37.2291 70.5014 37.2197 70.3943 37.2197H70.1757L69.9964 37.2592V38.9528C70.0654 38.9583 70.1347 38.9583 70.2037 38.9528C70.2806 38.9838 70.3592 39.0102 70.4391 39.0318Z" fill="#0D233F"/>
<path d="M72.748 34.2502H75.5504V35.1761H73.7457V36.5535H75.3542V37.4794H73.7457V38.9472H75.556V39.873H72.7536L72.748 34.2502Z" fill="#0D233F"/>
<path d="M78.543 35.176H77.7023C77.6687 36.1922 77.6182 37.039 77.551 37.7164C77.5243 38.2537 77.4009 38.7817 77.1867 39.2745C77.1323 39.3917 77.0584 39.4987 76.9681 39.5907C76.8944 39.665 76.8115 39.7295 76.7215 39.7826C76.6418 39.8253 76.5571 39.8575 76.4693 39.8786C76.3929 39.8862 76.3159 39.8862 76.2395 39.8786C76.1426 39.888 76.0449 39.888 75.948 39.8786C75.865 39.8589 75.7842 39.8305 75.707 39.7939L75.8191 38.8794C75.9109 38.9161 76.0132 38.9161 76.105 38.8794C76.1603 38.8545 76.2101 38.8187 76.2515 38.7741C76.2929 38.7295 76.325 38.677 76.346 38.6197C76.4231 38.4562 76.4796 38.2836 76.5141 38.1059C76.5589 37.8801 76.5982 37.5866 76.6374 37.2309C76.6766 36.8753 76.6935 36.4462 76.7159 35.9551C76.7383 35.4639 76.7495 34.8938 76.7607 34.2615H79.563V39.8616H78.5598L78.543 35.176Z" fill="#0D233F"/>
<path d="M80.2695 34.2502H81.2672V36.2656H81.3905H81.553H81.738H81.9061C82.1182 36.2645 82.3295 36.293 82.5338 36.3503C82.7273 36.3985 82.9062 36.4935 83.055 36.6269C83.2169 36.7831 83.3382 36.977 83.4081 37.1915C83.5045 37.4765 83.5481 37.7769 83.5371 38.0778C83.5757 38.6031 83.411 39.123 83.0775 39.5286C82.8824 39.7072 82.6527 39.843 82.4028 39.9275C82.1529 40.0121 81.8884 40.0435 81.6259 40.0198H81.3737H81.0206C80.891 40.0144 80.7618 40.0013 80.6338 39.9803C80.5111 39.9652 80.3895 39.9426 80.2695 39.9125V34.2502ZM81.2672 38.9528C81.3294 38.9715 81.3932 38.9847 81.4577 38.9923H81.6819C81.7897 38.9977 81.8974 38.981 81.9986 38.9432C82.0998 38.9053 82.1923 38.8471 82.2704 38.7722C82.354 38.6676 82.4164 38.5475 82.4539 38.4187C82.4914 38.2898 82.5033 38.1548 82.489 38.0213C82.4953 37.8664 82.4745 37.7116 82.4273 37.5641C82.3936 37.4582 82.336 37.3616 82.2592 37.2818C82.1866 37.2146 82.0976 37.1678 82.0014 37.1463C81.8965 37.1227 81.7893 37.1113 81.6819 37.1124C81.6073 37.1057 81.5323 37.1057 81.4577 37.1124L81.2672 37.1576V38.9528Z" fill="#0D233F"/>
<path d="M86.5595 37.4794H85.0406V39.8504H84.043V34.2502H85.0406V36.5535H86.5595V34.2502H87.5571V39.8504H86.5595V37.4794Z" fill="#0D233F"/>
<path d="M88.2734 34.2503H89.2711V36.26C89.3505 36.2418 89.431 36.2286 89.5121 36.2205C89.6203 36.2124 89.7289 36.2124 89.8372 36.2205C90.047 36.2196 90.2562 36.2461 90.4593 36.2995C90.6484 36.346 90.8223 36.4414 90.9637 36.5762C91.1233 36.7321 91.241 36.9264 91.3056 37.1407C91.3987 37.4246 91.4423 37.7225 91.4345 38.0214C91.4761 38.5503 91.3157 39.0753 90.9861 39.4891C90.7943 39.6655 90.5683 39.7997 90.3222 39.8833C90.0762 39.9669 89.8155 39.998 89.5569 39.9746H89.3103H88.9852C88.7453 39.9601 88.5071 39.9242 88.2734 39.8674V34.2503ZM89.2711 38.9472C89.3239 38.9656 89.3783 38.9789 89.4336 38.9867H89.6298C89.7336 38.9942 89.8377 38.9784 89.9347 38.9403C90.0316 38.9022 90.1189 38.8429 90.1902 38.7665C90.345 38.5467 90.4165 38.2784 90.392 38.0101C90.3936 37.8577 90.3747 37.7057 90.336 37.5584C90.3042 37.457 90.2528 37.363 90.1846 37.2818C90.1222 37.2118 90.0401 37.1625 89.9492 37.1407C89.85 37.1173 89.7484 37.106 89.6466 37.1068C89.5795 37.0997 89.5119 37.0997 89.4448 37.1068L89.2767 37.152L89.2711 38.9472ZM91.8604 34.2446H92.8637V39.8448H91.8604V34.2446Z" fill="#0D233F"/>
<path d="M96.2048 36.8639L96.2832 36.0735H96.244L95.9413 36.9203L94.3608 39.8503H93.5762V34.2501H94.5794V37.18L94.4897 37.9929H94.529L94.8484 37.1236L96.4289 34.2501H97.208V39.8503H96.2048V36.8639ZM95.0838 32.8613C95.1174 33.1831 95.2632 33.3468 95.5322 33.3468C95.8012 33.3468 95.9413 33.1888 95.975 32.867L96.782 32.9855C96.7768 33.1317 96.7394 33.2749 96.6725 33.4047C96.6056 33.5346 96.5109 33.6478 96.3953 33.7364C96.1359 33.9062 95.8299 33.9892 95.521 33.9735C95.3497 33.9747 95.1787 33.9577 95.011 33.9227C94.8686 33.8933 94.7321 33.8398 94.6074 33.7646C94.4906 33.6882 94.3928 33.5859 94.3216 33.4654C94.2403 33.3239 94.1924 33.1655 94.1815 33.0025L95.0838 32.8613Z" fill="#0D233F"/>
<path d="M99.9704 37.3437V36.5308H100.161H100.452C100.548 36.5334 100.643 36.5181 100.733 36.4856C100.874 36.4411 101.001 36.3569 101.097 36.2429C101.202 36.1168 101.256 35.9556 101.248 35.7912C101.262 35.6891 101.253 35.5851 101.221 35.4872C101.189 35.3893 101.135 35.3002 101.063 35.2267C100.912 35.118 100.728 35.0643 100.542 35.0743C100.37 35.073 100.2 35.1017 100.038 35.1589C99.9076 35.2015 99.7833 35.2603 99.6677 35.334L99.4155 34.4589L99.6341 34.3573C99.7394 34.3143 99.8482 34.2803 99.9592 34.2557C100.084 34.2196 100.211 34.1932 100.34 34.1767C100.476 34.1587 100.613 34.1492 100.749 34.1484C100.938 34.1507 101.126 34.1715 101.31 34.2105C101.487 34.2468 101.655 34.3199 101.803 34.4251C101.953 34.5349 102.071 34.683 102.145 34.8541C102.238 35.0734 102.282 35.3103 102.274 35.5485C102.276 35.8127 102.216 36.0737 102.1 36.3106C101.982 36.5468 101.783 36.7315 101.54 36.83V36.8751C101.801 36.9403 102.029 37.1014 102.179 37.3268C102.343 37.6 102.421 37.9168 102.403 38.2357C102.411 38.5048 102.362 38.7725 102.257 39.0204C102.172 39.2386 102.036 39.4324 101.859 39.5849C101.693 39.7216 101.503 39.825 101.299 39.8897C101.078 39.9532 100.85 39.9855 100.621 39.9857C100.357 39.9872 100.094 39.9607 99.8359 39.9067C99.6394 39.8696 99.4502 39.801 99.2754 39.7034L99.5388 38.8058C99.669 38.8807 99.8084 38.9376 99.9536 38.9752C100.156 39.0328 100.366 39.0595 100.576 39.0542C100.782 39.0577 100.982 38.9832 101.136 38.8454C101.221 38.7569 101.286 38.6511 101.326 38.5352C101.367 38.4193 101.382 38.296 101.372 38.1736C101.376 38.0694 101.358 37.9654 101.321 37.8683C101.283 37.7711 101.226 37.6829 101.153 37.609C100.929 37.4559 100.661 37.3824 100.391 37.4001H99.9536L99.9704 37.3437Z" fill="#0D233F"/>
<path d="M105.25 38.5689H103.938L103.613 39.8504H102.621L104.235 34.2051H105.02L106.64 39.8504H105.592L105.25 38.5689ZM104.129 37.756H105.054L104.734 36.4519L104.628 35.56L104.493 36.4463L104.129 37.756Z" fill="#0D233F"/>
<path d="M110.176 35.5598C110.177 35.6982 110.164 35.8363 110.137 35.9719C110.107 36.1055 110.06 36.2346 109.997 36.3558C109.932 36.4757 109.847 36.5828 109.745 36.672C109.637 36.7659 109.511 36.8352 109.375 36.8752V36.926C109.501 36.9578 109.624 37.0052 109.739 37.0671C109.853 37.1347 109.954 37.2227 110.036 37.3268C110.125 37.448 110.193 37.5835 110.238 37.7276C110.293 37.9105 110.32 38.101 110.316 38.2922C110.323 38.5489 110.271 38.8037 110.165 39.0374C110.076 39.239 109.942 39.4169 109.773 39.5567C109.598 39.6926 109.398 39.7924 109.184 39.8503C108.954 39.9149 108.717 39.9472 108.478 39.9463H108.192H107.817L107.402 39.9124C107.268 39.896 107.135 39.8715 107.004 39.839V34.3179L107.648 34.2332C107.906 34.2332 108.164 34.1993 108.416 34.1993C108.642 34.1978 108.867 34.2167 109.089 34.2558C109.288 34.2866 109.478 34.3576 109.649 34.4646C109.813 34.5661 109.947 34.7105 110.036 34.8824C110.135 35.0938 110.184 35.326 110.176 35.5598ZM108.231 36.6381H108.433L108.624 36.6099C108.776 36.5483 108.911 36.4493 109.016 36.322C109.127 36.1726 109.185 35.9893 109.179 35.8026C109.183 35.6815 109.164 35.5608 109.122 35.4469C109.09 35.3611 109.038 35.2839 108.971 35.2211C108.906 35.1649 108.83 35.1243 108.747 35.1026C108.654 35.0749 108.558 35.0615 108.461 35.063C108.307 35.0579 108.153 35.0693 108.002 35.0969V36.6494L108.231 36.6381ZM108.506 39.0712C108.61 39.0768 108.713 39.0601 108.81 39.0221C108.906 38.9842 108.994 38.9258 109.066 38.8511C109.144 38.7666 109.204 38.6668 109.241 38.5579C109.279 38.4491 109.294 38.3337 109.285 38.2188C109.289 38.076 109.265 37.9338 109.212 37.801C109.171 37.7059 109.106 37.6239 109.022 37.5639C108.94 37.5058 108.846 37.4672 108.747 37.451C108.641 37.4452 108.534 37.4452 108.428 37.451H108.018V39.043C108.089 39.0643 108.163 39.0757 108.237 39.0769L108.506 39.0712Z" fill="#0D233F"/>
<path d="M110.738 37.0503C110.691 36.2956 110.861 35.5432 111.226 34.8825C111.384 34.638 111.604 34.4401 111.863 34.3092C112.122 34.1783 112.411 34.1189 112.7 34.1373C113.009 34.1284 113.316 34.1983 113.591 34.3405C113.839 34.473 114.049 34.6674 114.202 34.9051C114.371 35.1892 114.49 35.5005 114.555 35.8253C114.637 36.2207 114.676 36.6238 114.673 37.0277C114.719 37.7838 114.546 38.5372 114.174 39.1955C114.012 39.4368 113.792 39.6321 113.534 39.7627C113.275 39.8932 112.988 39.9545 112.7 39.9407C112.39 39.9496 112.084 39.8797 111.809 39.7375C111.563 39.6028 111.355 39.4088 111.203 39.1729C111.029 38.8911 110.91 38.579 110.85 38.2528C110.773 37.8567 110.736 37.4539 110.738 37.0503ZM111.786 37.0503C111.793 37.3076 111.818 37.5641 111.859 37.8181C111.882 38.0333 111.935 38.2443 112.016 38.4447C112.078 38.6014 112.173 38.7422 112.296 38.8568C112.414 38.9591 112.566 39.0135 112.722 39.0092C112.871 39.0101 113.017 38.9659 113.141 38.8824C113.265 38.7988 113.361 38.6798 113.417 38.5407C113.598 38.0581 113.676 37.5427 113.647 37.0277C113.648 36.7691 113.631 36.5106 113.596 36.2543C113.57 36.0378 113.517 35.8255 113.44 35.622C113.38 35.4607 113.284 35.3156 113.159 35.1986C113.037 35.0955 112.881 35.0413 112.722 35.0462C112.1 35.0688 111.792 35.7293 111.792 37.0503H111.786Z" fill="#0D233F"/>
<path d="M119.256 40.8498H118.55L118.455 39.8505H115.596L115.501 40.8498H114.795V38.9473H115.277C115.336 38.8173 115.387 38.6834 115.428 38.5465C115.488 38.3357 115.555 38.0421 115.63 37.6658C115.697 37.2875 115.753 36.819 115.798 36.2545C115.843 35.6899 115.865 35.0351 115.86 34.2729H118.662V38.9473H119.223L119.256 40.8498ZM117.687 38.9473V35.1988H116.801C116.791 35.9942 116.729 36.7882 116.616 37.5755C116.567 38.0403 116.475 38.4995 116.342 38.9473H117.687Z" fill="#0D233F"/>
<path d="M90 70.8771L0 13.7124H34.5361V16.2641H8.76012L90 67.8624L171.245 16.2641H145.464V13.7124H180.006L90 70.8771Z" fill="#0D233F"/>
<path d="M89.9999 80L0.728516 23.2983H11.3382V25.4266H8.02581L89.9999 77.4879L171.974 25.4266H168.662V23.2983H179.271L89.9999 80Z" fill="#0D233F"/>
</g>
<defs>
<clipPath id="clip0_74_433">
<rect width="180" height="80" fill="white"/>
</clipPath>
</defs>
</svg>
